{
  "accessors": [
    {
      "bufferView": 2,
      "componentType": 5126,
      "count": 1584,
      "max": [
        1.0169178247451782,
        0.0016662494745105505,
        1.0169175863265991
      ],
      "min": [
        -1.0169172286987305,
        -1.0169999599456787,
        -1.0169168710708618
      ],
      "type": "VEC3"
    },
    {
      "bufferView": 2,
      "byteOffset": 19008,
      "componentType": 5126,
      "count": 1584,
      "max": [
        0.9940735697746277,
        1.0,
        0.9940756559371948
      ],
      "min": [
        -0.9940732717514038,
        -1.0,
        -0.9940677285194397
      ],
      "type": "VEC3"
    },
    {
      "bufferView": 1,
      "componentType": 5126,
      "count": 1584,
      "max": [
        1.0000001192092896,
        0.5
      ],
      "min": [
        0.0,
        0.0
      ],
      "type": "VEC2"
    },
    {
      "bufferView": 0,
      "componentType": 5125,
      "count": 11904,
      "type": "SCALAR"
    },
    {
      "bufferView": 2,
      "byteOffset": 38016,
      "componentType": 5126,
      "count": 130,
      "max": [
        1.0,
        1.0,
        1.0
      ],
      "min": [
        -1.0,
        -1.0,
        -1.0
      ],
      "type": "VEC3"
    },
    {
      "bufferView": 2,
      "byteOffset": 39576,
      "componentType": 5126,
      "count": 130,
      "max": [
        0.7278876900672913,
        0.685696542263031,
        0.7278876304626465
      ],
      "min": [
        -0.7278876900672913,
        -0.6856964826583862,
        -0.7278876900672913
      ],
      "type": "VEC3"
    },
    {
      "bufferView": 1,
      "byteOffset": 12672,
      "componentType": 5126,
      "count": 130,
      "max": [
        1.0,
        1.0
      ],
      "min": [
        0.0,
        0.01000000536441803
      ],
      "type": "VEC2"
    },
    {
      "bufferView": 0,
      "byteOffset": 47616,
      "componentType": 5125,
      "count": 372,
      "type": "SCALAR"
    },
    {
      "bufferView": 2,
      "byteOffset": 41136,
      "componentType": 5126,
      "count": 192,
      "max": [
        1.0,
        1.0,
        1.0
      ],
      "min": [
        -1.0,
        -1.0,
        -1.0
      ],
      "type": "VEC3"
    },
    {
      "bufferView": 2,
      "byteOffset": 43440,
      "componentType": 5126,
      "count": 192,
      "max": [
        0.9951847195625305,
        1.0,
        0.9951848387718201
      ],
      "min": [
        -0.9951847195625305,
        -1.0,
        -0.9951848387718201
      ],
      "type": "VEC3"
    },
    {
      "bufferView": 1,
      "byteOffset": 13712,
      "componentType": 5126,
      "count": 192,
      "max": [
        1.0,
        1.0
      ],
      "min": [
        0.0,
        0.01000000536441803
      ],
      "type": "VEC2"
    },
    {
      "bufferView": 0,
      "byteOffset": 49104,
      "componentType": 5125,
      "count": 372,
      "type": "SCALAR"
    },
    {
      "bufferView": 2,
      "byteOffset": 45744,
      "componentType": 5126,
      "count": 130,
      "max": [
        1.0,
        1.0,
        1.0
      ],
      "min": [
        -1.0,
        -1.0,
        -1.0
      ],
      "type": "VEC3"
    },
    {
      "bufferView": 2,
      "byteOffset": 47304,
      "componentType": 5126,
      "count": 130,
      "max": [
        0.7278876900672913,
        0.685696542263031,
        0.7278876304626465
      ],
      "min": [
        -0.7278876900672913,
        -0.6856964826583862,
        -0.7278876900672913
      ],
      "type": "VEC3"
    },
    {
      "bufferView": 1,
      "byteOffset": 15248,
      "componentType": 5126,
      "count": 130,
      "max": [
        1.0,
        1.0
      ],
      "min": [
        0.0,
        0.01000000536441803
      ],
      "type": "VEC2"
    },
    {
      "bufferView": 0,
      "byteOffset": 50592,
      "componentType": 5125,
      "count": 372,
      "type": "SCALAR"
    },
    {
      "bufferView": 2,
      "byteOffset": 48864,
      "componentType": 5126,
      "count": 2967,
      "max": [
        18.39404296875,
        1.0,
        18.3940372467041
      ],
      "min": [
        -18.394031524658203,
        -95.25018310546875,
        -18.394025802612305
      ],
      "type": "VEC3"
    },
    {
      "bufferView": 2,
      "byteOffset": 84468,
      "componentType": 5126,
      "count": 2967,
      "max": [
        0.9999999403953552,
        1.0,
        0.9999999403953552
      ],
      "min": [
        -0.9999999403953552,
        -1.0,
        -0.9999999403953552
      ],
      "type": "VEC3"
    },
    {
      "bufferView": 1,
      "byteOffset": 16288,
      "componentType": 5126,
      "count": 2967,
      "max": [
        1.0000001192092896,
        1.0
      ],
      "min": [
        0.0,
        0.0
      ],
      "type": "VEC2"
    },
    {
      "bufferView": 0,
      "byteOffset": 52080,
      "componentType": 5125,
      "count": 9876,
      "type": "SCALAR"
    },
    {
      "bufferView": 2,
      "byteOffset": 120072,
      "componentType": 5126,
      "count": 62,
      "max": [
        0.9807852506637573,
        1.0,
        1.0
      ],
      "min": [
        -0.9807852506637573,
        -1.0,
        -1.0
      ],
      "type": "VEC3"
    },
    {
      "bufferView": 2,
      "byteOffset": 120816,
      "componentType": 5126,
      "count": 62,
      "max": [
        0.7139014601707458,
        0.685696542263031,
        0.7278876304626465
      ],
      "min": [
        -0.7139014601707458,
        -0.6856964826583862,
        -0.7278876900672913
      ],
      "type": "VEC3"
    },
    {
      "bufferView": 1,
      "byteOffset": 40024,
      "componentType": 5126,
      "count": 62,
      "max": [
        1.0,
        1.0
      ],
      "min": [
        0.0,
        0.5
      ],
      "type": "VEC2"
    },
    {
      "bufferView": 0,
      "byteOffset": 91584,
      "componentType": 5125,
      "count": 168,
      "type": "SCALAR"
    },
    {
      "bufferView": 2,
      "byteOffset": 121560,
      "componentType": 5126,
      "count": 1142,
      "max": [
        18.47882843017578,
        -0.530778169631958,
        18.410799026489258
      ],
      "min": [
        -18.342769622802734,
        -98.29495239257813,
        -18.410799026489258
      ],
      "type": "VEC3"
    },
    {
      "bufferView": 2,
      "byteOffset": 135264,
      "componentType": 5126,
      "count": 1142,
      "max": [
        1.0,
        1.0,
        1.0
      ],
      "min": [
        -1.0,
        -1.0,
        -1.0
      ],
      "type": "VEC3"
    },
    {
      "bufferView": 1,
      "byteOffset": 40520,
      "componentType": 5126,
      "count": 1142,
      "max": [
        1.0,
        1.0
      ],
      "min": [
        0.0,
        0.0
      ],
      "type": "VEC2"
    },
    {
      "bufferView": 0,
      "byteOffset": 92256,
      "componentType": 5125,
      "count": 3174,
      "type": "SCALAR"
    },
    {
      "bufferView": 2,
      "byteOffset": 148968,
      "componentType": 5126,
      "count": 12,
      "max": [
        0.9881928563117981,
        -75.65493774414063,
        4.0088982582092285
      ],
      "min": [
        -1.5885721445083618,
        -78.25128173828125,
        4.0088982582092285
      ],
      "type": "VEC3"
    },
    {
      "bufferView": 2,
      "byteOffset": 149112,
      "componentType": 5126,
      "count": 12,
      "max": [
        0.0,
        1.4941747839003483e-09,
        1.0
      ],
      "min": [
        0.0,
        0.0,
        1.0
      ],
      "type": "VEC3"
    },
    {
      "bufferView": 1,
      "byteOffset": 49656,
      "componentType": 5126,
      "count": 12,
      "max": [
        0.625,
        0.9245327115058899
      ],
      "min": [
        0.3749999701976776,
        0.8441874980926514
      ],
      "type": "VEC2"
    },
    {
      "bufferView": 0,
      "byteOffset": 104952,
      "componentType": 5125,
      "count": 18,
      "type": "SCALAR"
    },
    {
      "bufferView": 2,
      "byteOffset": 149256,
      "componentType": 5126,
      "count": 296,
      "max": [
        0.9999997019767761,
        -4.371138828673793e-08,
        0.9999994039535522
      ],
      "min": [
        -0.9999990463256836,
        -1.0,
        -0.9999987483024597
      ],
      "type": "VEC3"
    },
    {
      "bufferView": 2,
      "byteOffset": 152808,
      "componentType": 5126,
      "count": 296,
      "max": [
        0.9951848983764648,
        -0.09801413863897324,
        0.9951848983764648
      ],
      "min": [
        -0.9951850175857544,
        -1.0,
        -0.9951850175857544
      ],
      "type": "VEC3"
    },
    {
      "bufferView": 1,
      "byteOffset": 49752,
      "componentType": 5126,
      "count": 296,
      "max": [
        1.0000001192092896,
        0.5
      ],
      "min": [
        0.0,
        0.0
      ],
      "type": "VEC2"
    },
    {
      "bufferView": 0,
      "byteOffset": 105024,
      "componentType": 5125,
      "count": 1440,
      "type": "SCALAR"
    }
  ],
  "asset": {
    "extras": {
      "author": "foxb56239 (https://sketchfab.com/foxb56239)",
      "license": "CC-BY-4.0 (http://creativecommons.org/licenses/by/4.0/)",
      "source": "https://sketchfab.com/3d-models/realistic-3d-satellite-dish-f27854825eab4e9ca72a4d928c622770",
      "title": "Realistic 3D Satellite Dish"
    },
    "generator": "Sketchfab-16.73.0",
    "version": "2.0"
  },
  "bufferViews": [
    {
      "buffer": 0,
      "byteLength": 110784,
      "name": "floatBufferViews",
      "target": 34963
    },
    {
      "buffer": 0,
      "byteLength": 52120,
      "byteOffset": 110784,
      "byteStride": 8,
      "name": "floatBufferViews",
      "target": 34962
    },
    {
      "buffer": 0,
      "byteLength": 156360,
      "byteOffset": 162904,
      "byteStride": 12,
      "name": "floatBufferViews",
      "target": 34962
    }
  ],
  "buffers": [
    {
      "byteLength": 319264,
      "uri": "scene.bin"
    }
  ],
  "materials": [
    {
      "doubleSided": true,
      "name": "material_0",
      "pbrMetallicRoughness": {
        "metallicFactor": 0.0,
        "roughnessFactor": 0.6
      }
    },
    {
      "doubleSided": true,
      "name": "Material.005",
      "pbrMetallicRoughness": {
        "baseColorFactor": [
          0.378089,
          0.378089,
          0.378089,
          1.0
        ]
      }
    },
    {
      "doubleSided": true,
      "name": "Material.003",
      "pbrMetallicRoughness": {
        "baseColorFactor": [
          0.378089,
          0.378089,
          0.378089,
          1.0
        ]
      }
    },
    {
      "doubleSided": true,
      "emissiveFactor": [
        1.0,
        0.135982,
        0.0
      ],
      "name": "Material.004",
      "pbrMetallicRoughness": {
        "baseColorFactor": [
          0.8,
          0.00558089,
          0.0,
          1.0
        ],
        "metallicFactor": 0.0,
        "roughnessFactor": 0.5
      }
    },
    {
      "doubleSided": true,
      "name": "Material.001",
      "pbrMetallicRoughness": {
        "baseColorFactor": [
          0.304573,
          0.304573,
          0.304573,
          1.0
        ],
        "metallicFactor": 0.0,
        "roughnessFactor": 0.5
      }
    },
    {
      "doubleSided": true,
      "emissiveFactor": [
        1.0,
        0.0887835,
        0.0
      ],
      "name": "Material.002",
      "pbrMetallicRoughness": {
        "baseColorFactor": [
          0.8,
          0.0,
          0.0109398,
          1.0
        ],
        "metallicFactor": 0.0,
        "roughnessFactor": 0.5
      }
    }
  ],
  "meshes": [
    {
      "name": "Object_0",
      "primitives": [
        {
          "attributes": {
            "NORMAL": 1,
            "POSITION": 0,
            "TEXCOORD_0": 2
          },
          "indices": 3,
          "material": 1,
          "mode": 4
        }
      ]
    },
    {
      "name": "Object_1",
      "primitives": [
        {
          "attributes": {
            "NORMAL": 5,
            "POSITION": 4,
            "TEXCOORD_0": 6
          },
          "indices": 7,
          "material": 0,
          "mode": 4
        }
      ]
    },
    {
      "name": "Object_2",
      "primitives": [
        {
          "attributes": {
            "NORMAL": 9,
            "POSITION": 8,
            "TEXCOORD_0": 10
          },
          "indices": 11,
          "material": 0,
          "mode": 4
        }
      ]
    },
    {
      "name": "Object_3",
      "primitives": [
        {
          "attributes": {
            "NORMAL": 13,
            "POSITION": 12,
            "TEXCOORD_0": 14
          },
          "indices": 15,
          "material": 0,
          "mode": 4
        }
      ]
    },
    {
      "name": "Object_4",
      "primitives": [
        {
          "attributes": {
            "NORMAL": 17,
            "POSITION": 16,
            "TEXCOORD_0": 18
          },
          "indices": 19,
          "material": 2,
          "mode": 4
        }
      ]
    },
    {
      "name": "Object_5",
      "primitives": [
        {
          "attributes": {
            "NORMAL": 21,
            "POSITION": 20,
            "TEXCOORD_0": 22
          },
          "indices": 23,
          "material": 3,
          "mode": 4
        }
      ]
    },
    {
      "name": "Object_6",
      "primitives": [
        {
          "attributes": {
            "NORMAL": 25,
            "POSITION": 24,
            "TEXCOORD_0": 26
          },
          "indices": 27,
          "material": 4,
          "mode": 4
        }
      ]
    },
    {
      "name": "Object_7",
      "primitives": [
        {
          "attributes": {
            "NORMAL": 29,
            "POSITION": 28,
            "TEXCOORD_0": 30
          },
          "indices": 31,
          "material": 5,
          "mode": 4
        }
      ]
    },
    {
      "name": "Object_8",
      "primitives": [
        {
          "attributes": {
            "NORMAL": 33,
            "POSITION": 32,
            "TEXCOORD_0": 34
          },
          "indices": 35,
          "material": 0,
          "mode": 4
        }
      ]
    }
  ],
  "nodes": [
    {
      "children": [
        1
      ],
      "matrix": [
        1.0,
        0.0,
        0.0,
        0.0,
        0.0,
        2.220446049250313e-16,
        -1.0,
        0.0,
        0.0,
        1.0,
        2.220446049250313e-16,
        0.0,
        0.0,
        0.0,
        0.0,
        1.0
      ],
      "name": "Sketchfab_model"
    },
    {
      "children": [
        2
      ],
      "name": "root"
    },
    {
      "children": [
        3,
        5,
        7,
        9,
        11,
        16
      ],
      "matrix": [
        1.0,
        0.0,
        0.0,
        0.0,
        0.0,
        2.220446049250313e-16,
        1.0,
        0.0,
        0.0,
        -1.0,
        2.220446049250313e-16,
        0.0,
        0.0,
        0.0,
        0.0,
        1.0
      ],
      "name": "GLTF_SceneRootNode"
    },
    {
      "children": [
        4
      ],
      "matrix": [
        4.962271690368652,
        0.0,
        0.0,
        0.0,
        0.0,
        2.8344576358795166,
        0.0,
        0.0,
        0.0,
        0.0,
        4.962271690368652,
        0.0,
        0.0,
        2.638353109359741,
        0.0,
        1.0
      ],
      "name": "Sphere.001_2"
    },
    {
      "mesh": 0,
      "name": "Object_4"
    },
    {
      "children": [
        6
      ],
      "matrix": [
        0.8355294466018677,
        0.0,
        0.0,
        0.0,
        0.0,
        0.3000737428665161,
        0.0,
        0.0,
        0.0,
        0.0,
        0.8355294466018677,
        0.0,
        0.0,
        0.43365478515625,
        0.0,
        1.0
      ],
      "name": "Cylinder.001_3"
    },
    {
      "mesh": 1,
      "name": "Object_6"
    },
    {
      "children": [
        8
      ],
      "matrix": [
        0.9290385842323303,
        0.0,
        0.0,
        0.0,
        0.0,
        0.06489415466785431,
        0.0,
        0.0,
        0.0,
        0.0,
        0.9290385842323303,
        0.0,
        0.0,
        -0.1395949125289917,
        0.0,
        1.0
      ],
      "name": "Cylinder.006_4"
    },
    {
      "mesh": 2,
      "name": "Object_8"
    },
    {
      "children": [
        10
      ],
      "matrix": [
        0.8161363005638123,
        0.0,
        0.0,
        0.0,
        0.0,
        1.2592408657073975,
        0.0,
        0.0,
        0.0,
        0.0,
        0.8161363005638123,
        0.0,
        0.0,
        -3.1450271606445313,
        0.0,
        1.0
      ],
      "name": "Cylinder.007_5"
    },
    {
      "mesh": 3,
      "name": "Object_10"
    },
    {
      "children": [
        12,
        13,
        14,
        15
      ],
      "matrix": [
        0.269775927066803,
        0.0,
        0.0,
        0.0,
        0.0,
        0.10428500175476074,
        0.0,
        0.0,
        0.0,
        0.0,
        0.269775927066803,
        0.0,
        0.0,
        5.599102020263672,
        0.0,
        1.0
      ],
      "name": "Cylinder.012_6"
    },
    {
      "mesh": 4,
      "name": "Object_12"
    },
    {
      "mesh": 5,
      "name": "Object_13"
    },
    {
      "mesh": 6,
      "name": "Object_14"
    },
    {
      "mesh": 7,
      "name": "Object_15"
    },
    {
      "children": [
        17
      ],
      "matrix": [
        0.01184269862782818,
        0.0,
        -0.011842700172918516,
        0.0,
        0.0,
        1.7747564315795898,
        0.0,
        0.0,
        3.508856191245968,
        0.0,
        3.5088557334534287,
        0.0,
        0.0,
        2.0606698989868164,
        0.0,
        1.0
      ],
      "name": "Sphere.004_7"
    },
    {
      "mesh": 8,
      "name": "Object_17"
    }
  ],
  "scene": 0,
  "scenes": [
    {
      "name": "Sketchfab_Scene",
      "nodes": [
        0
      ]
    }
  ]
}
